<?xml version="1.0"?>
<!-- Generated by SVGo -->
<svg width="158.114mm" height="115.252mm"
     viewBox="0.000 0.000 158.114 115.252"
     xmlns="http://www.w3.org/2000/svg" 
     xmlns:xlink="http://www.w3.org/1999/xlink">
<polygon points="150.114,5.001 150.349,5.010 150.583,5.037 150.814,5.083 151.041,5.147 151.262,5.229 151.476,5.327 151.681,5.443 151.877,5.573 152.062,5.719 152.235,5.879 152.395,6.052 152.541,6.237 152.672,6.433 152.787,6.639 152.886,6.852 152.967,7.073 153.031,7.300 153.077,7.531 153.105,7.765 153.114,8.001 153.114,107.251 153.105,107.487 153.077,107.721 153.031,107.952 152.967,108.179 152.886,108.400 152.787,108.613 152.672,108.819 152.541,109.015 152.395,109.200 152.235,109.373 152.062,109.533 151.877,109.679 151.681,109.809 151.476,109.925 151.262,110.023 151.041,110.105 150.814,110.169 150.583,110.215 150.349,110.242 150.114,110.252 8.001,110.251 7.765,110.242 7.531,110.215 7.300,110.169 7.073,110.105 6.852,110.023 6.639,109.925 6.433,109.809 6.237,109.679 6.052,109.533 5.879,109.373 5.719,109.200 5.573,109.015 5.443,108.819 5.327,108.613 5.229,108.400 5.147,108.179 5.083,107.952 5.037,107.721 5.010,107.487 5.000,107.251 5.001,8.001 5.010,7.765 5.037,7.531 5.083,7.300 5.147,7.073 5.229,6.852 5.327,6.639 5.443,6.433 5.573,6.237 5.719,6.052 5.879,5.879 6.052,5.719 6.237,5.573 6.433,5.443 6.639,5.327 6.852,5.229 7.073,5.147 7.300,5.083 7.531,5.037 7.765,5.010 8.001,5.000" style="fill:none;stroke-width:0.050000mm;stroke:black"/>
<polygon points="114.919,88.726 114.919,93.426 113.394,93.426 113.394,90.196 106.644,90.196 106.644,93.426 105.819,93.426 105.819,96.226 106.644,96.226 106.644,102.495 108.369,102.495 108.369,103.696 111.669,103.696 111.669,102.495 113.394,102.495 113.394,98.025 114.919,98.025 114.919,102.726 128.919,102.726 128.919,98.025 130.444,98.025 130.444,102.495 132.169,102.495 132.169,103.696 135.469,103.696 135.469,102.495 137.194,102.495 137.194,96.226 138.019,96.226 138.019,93.426 137.194,93.426 137.194,90.196 130.444,90.196 130.444,93.426 128.919,93.426 128.919,88.726" style="fill:none;stroke-width:0.050000mm;stroke:black"/>
<polygon points="14.907,88.726 14.907,102.726 28.907,102.726 28.907,88.726" style="fill:none;stroke-width:0.050000mm;stroke:black"/>
<polygon points="38.719,88.726 38.719,102.726 52.719,102.726 52.719,88.726" style="fill:none;stroke-width:0.050000mm;stroke:black"/>
<polygon points="62.532,88.726 62.532,102.726 76.532,102.726 76.532,88.726" style="fill:none;stroke-width:0.050000mm;stroke:black"/>
<polygon points="24.432,69.676 24.432,74.376 22.907,74.376 22.907,71.146 16.156,71.146 16.156,74.376 15.332,74.376 15.332,77.176 16.156,77.176 16.156,83.446 17.882,83.446 17.882,84.646 21.182,84.646 21.182,83.446 22.907,83.446 22.907,78.976 24.432,78.976 24.432,83.676 38.432,83.676 38.432,78.976 39.957,78.976 39.957,83.446 41.682,83.446 41.682,84.646 44.982,84.646 44.982,83.446 46.707,83.446 46.707,77.176 47.532,77.176 47.532,74.376 46.707,74.376 46.707,71.146 39.957,71.146 39.957,74.376 38.432,74.376 38.432,69.676" style="fill:none;stroke-width:0.050000mm;stroke:black"/>
<polygon points="55.388,69.676 55.388,83.676 69.388,83.676 69.388,69.676" style="fill:none;stroke-width:0.050000mm;stroke:black"/>
<polygon points="74.438,69.676 74.438,83.676 88.438,83.676 88.438,69.676" style="fill:none;stroke-width:0.050000mm;stroke:black"/>
<polygon points="93.488,69.676 93.488,83.676 107.488,83.676 107.488,69.676" style="fill:none;stroke-width:0.050000mm;stroke:black"/>
<polygon points="112.538,69.676 112.538,83.676 126.538,83.676 126.538,69.676" style="fill:none;stroke-width:0.050000mm;stroke:black"/>
<polygon points="131.588,69.676 131.588,83.676 145.588,83.676 145.588,69.676" style="fill:none;stroke-width:0.050000mm;stroke:black"/>
<polygon points="19.669,50.626 19.669,64.626 33.669,64.626 33.669,50.626" style="fill:none;stroke-width:0.050000mm;stroke:black"/>
<polygon points="45.863,50.626 45.863,64.626 59.863,64.626 59.863,50.626" style="fill:none;stroke-width:0.050000mm;stroke:black"/>
<polygon points="64.913,50.626 64.913,64.626 78.913,64.626 78.913,50.626" style="fill:none;stroke-width:0.050000mm;stroke:black"/>
<polygon points="83.963,50.626 83.963,64.626 97.963,64.626 97.963,50.626" style="fill:none;stroke-width:0.050000mm;stroke:black"/>
<polygon points="103.013,50.626 103.013,64.626 117.013,64.626 117.013,50.626" style="fill:none;stroke-width:0.050000mm;stroke:black"/>
<polygon points="122.063,50.626 122.063,64.626 136.063,64.626 136.063,50.626" style="fill:none;stroke-width:0.050000mm;stroke:black"/>
<polygon points="17.288,31.576 17.288,45.576 31.288,45.576 31.288,31.576" style="fill:none;stroke-width:0.050000mm;stroke:black"/>
<polygon points="41.101,31.576 41.101,45.576 55.101,45.576 55.101,31.576" style="fill:none;stroke-width:0.050000mm;stroke:black"/>
<polygon points="60.151,31.576 60.151,45.576 74.151,45.576 74.151,31.576" style="fill:none;stroke-width:0.050000mm;stroke:black"/>
<polygon points="79.201,31.576 79.201,45.576 93.201,45.576 93.201,31.576" style="fill:none;stroke-width:0.050000mm;stroke:black"/>
<polygon points="98.251,31.576 98.251,45.576 112.251,45.576 112.251,31.576" style="fill:none;stroke-width:0.050000mm;stroke:black"/>
<polygon points="117.301,31.576 117.301,45.576 131.301,45.576 131.301,31.576" style="fill:none;stroke-width:0.050000mm;stroke:black"/>
<polygon points="12.525,12.525 12.525,26.526 26.526,26.526 26.526,12.525" style="fill:none;stroke-width:0.050000mm;stroke:black"/>
<polygon points="31.576,12.525 31.576,26.526 45.576,26.526 45.576,12.525" style="fill:none;stroke-width:0.050000mm;stroke:black"/>
<polygon points="50.626,12.525 50.626,26.526 64.626,26.526 64.626,12.525" style="fill:none;stroke-width:0.050000mm;stroke:black"/>
<polygon points="69.676,12.525 69.676,26.526 83.676,26.526 83.676,12.525" style="fill:none;stroke-width:0.050000mm;stroke:black"/>
<polygon points="88.726,12.525 88.726,26.526 102.726,26.526 102.726,12.525" style="fill:none;stroke-width:0.050000mm;stroke:black"/>
<polygon points="107.775,12.525 107.775,26.526 121.775,26.526 121.775,12.525" style="fill:none;stroke-width:0.050000mm;stroke:black"/>
</svg>
