<?xml version="1.0"?>
<!-- Generated by SVGo -->
<svg width="191.452mm" height="115.252mm"
     viewBox="0.000 0.000 191.452 115.252"
     xmlns="http://www.w3.org/2000/svg" 
     xmlns:xlink="http://www.w3.org/1999/xlink">
<polygon points="183.452,5.001 183.687,5.010 183.921,5.037 184.152,5.083 184.379,5.147 184.600,5.229 184.813,5.327 185.019,5.443 185.215,5.573 185.400,5.719 185.573,5.879 185.733,6.052 185.879,6.237 186.009,6.433 186.125,6.639 186.223,6.852 186.305,7.073 186.369,7.300 186.415,7.531 186.442,7.765 186.452,8.001 186.452,107.251 186.442,107.487 186.415,107.721 186.369,107.952 186.305,108.179 186.223,108.400 186.125,108.613 186.009,108.819 185.879,109.015 185.733,109.200 185.573,109.373 185.400,109.533 185.215,109.679 185.019,109.809 184.813,109.925 184.600,110.023 184.379,110.105 184.152,110.169 183.921,110.215 183.687,110.242 183.452,110.252 8.001,110.251 7.765,110.242 7.531,110.215 7.300,110.169 7.073,110.105 6.852,110.023 6.639,109.925 6.433,109.809 6.237,109.679 6.052,109.533 5.879,109.373 5.719,109.200 5.573,109.015 5.443,108.819 5.327,108.613 5.229,108.400 5.147,108.179 5.083,107.952 5.037,107.721 5.010,107.487 5.000,107.251 5.001,8.001 5.010,7.765 5.037,7.531 5.083,7.300 5.147,7.073 5.229,6.852 5.327,6.639 5.443,6.433 5.573,6.237 5.719,6.052 5.879,5.879 6.052,5.719 6.237,5.573 6.433,5.443 6.639,5.327 6.852,5.229 7.073,5.147 7.300,5.083 7.531,5.037 7.765,5.010 8.001,5.000" style="fill:none;stroke-width:0.050000mm;stroke:black"/>
<polygon points="53.007,88.726 53.007,93.426 51.482,93.426 51.482,90.196 44.732,90.196 44.732,93.426 43.907,93.426 43.907,96.226 44.732,96.226 44.732,102.495 46.457,102.495 46.457,103.696 49.757,103.696 49.757,102.495 51.482,102.495 51.482,98.025 53.007,98.025 53.007,102.726 67.007,102.726 67.007,98.025 68.532,98.025 68.532,102.495 70.257,102.495 70.257,103.696 73.557,103.696 73.557,102.495 75.282,102.495 75.282,96.226 76.107,96.226 76.107,93.426 75.282,93.426 75.282,90.196 68.532,90.196 68.532,93.426 67.007,93.426 67.007,88.726" style="fill:none;stroke-width:0.050000mm;stroke:black"/>
<polygon points="91.107,88.726 91.107,102.726 105.107,102.726 105.107,88.726" style="fill:none;stroke-width:0.050000mm;stroke:black"/>
<polygon points="114.919,88.726 114.919,102.726 128.919,102.726 128.919,88.726" style="fill:none;stroke-width:0.050000mm;stroke:black"/>
<polygon points="138.732,88.726 138.732,102.726 152.732,102.726 152.732,88.726" style="fill:none;stroke-width:0.050000mm;stroke:black"/>
<polygon points="162.544,88.726 162.544,102.726 176.544,102.726 176.544,88.726" style="fill:none;stroke-width:0.050000mm;stroke:black"/>
<polygon points="148.257,69.676 148.257,74.376 146.732,74.376 146.732,71.146 139.982,71.146 139.982,74.376 139.157,74.376 139.157,77.176 139.982,77.176 139.982,83.446 141.707,83.446 141.707,84.646 145.007,84.646 145.007,83.446 146.732,83.446 146.732,78.976 148.257,78.976 148.257,83.676 162.257,83.676 162.257,78.976 163.782,78.976 163.782,83.446 165.507,83.446 165.507,84.646 168.807,84.646 168.807,83.446 170.532,83.446 170.532,77.176 171.357,77.176 171.357,74.376 170.532,74.376 170.532,71.146 163.782,71.146 163.782,74.376 162.257,74.376 162.257,69.676" style="fill:none;stroke-width:0.050000mm;stroke:black"/>
<polygon points="36.338,69.676 36.338,83.676 50.338,83.676 50.338,69.676" style="fill:none;stroke-width:0.050000mm;stroke:black"/>
<polygon points="55.388,69.676 55.388,83.676 69.388,83.676 69.388,69.676" style="fill:none;stroke-width:0.050000mm;stroke:black"/>
<polygon points="74.438,69.676 74.438,83.676 88.438,83.676 88.438,69.676" style="fill:none;stroke-width:0.050000mm;stroke:black"/>
<polygon points="93.488,69.676 93.488,83.676 107.488,83.676 107.488,69.676" style="fill:none;stroke-width:0.050000mm;stroke:black"/>
<polygon points="112.538,69.676 112.538,83.676 126.538,83.676 126.538,69.676" style="fill:none;stroke-width:0.050000mm;stroke:black"/>
<polygon points="153.019,50.626 153.019,55.326 151.494,55.326 151.494,52.096 144.744,52.096 144.744,55.326 143.919,55.326 143.919,58.126 144.744,58.126 144.744,64.395 146.469,64.395 146.469,65.596 149.769,65.596 149.769,64.395 151.494,64.395 151.494,59.926 153.019,59.926 153.019,64.626 167.019,64.626 167.019,59.926 168.544,59.926 168.544,64.395 170.269,64.395 170.269,65.596 173.569,65.596 173.569,64.395 175.294,64.395 175.294,58.126 176.119,58.126 176.119,55.326 175.294,55.326 175.294,52.096 168.544,52.096 168.544,55.326 167.019,55.326 167.019,50.626" style="fill:none;stroke-width:0.050000mm;stroke:black"/>
<polygon points="26.813,50.626 26.813,64.626 40.813,64.626 40.813,50.626" style="fill:none;stroke-width:0.050000mm;stroke:black"/>
<polygon points="45.863,50.626 45.863,64.626 59.863,64.626 59.863,50.626" style="fill:none;stroke-width:0.050000mm;stroke:black"/>
<polygon points="64.913,50.626 64.913,64.626 78.913,64.626 78.913,50.626" style="fill:none;stroke-width:0.050000mm;stroke:black"/>
<polygon points="83.963,50.626 83.963,64.626 97.963,64.626 97.963,50.626" style="fill:none;stroke-width:0.050000mm;stroke:black"/>
<polygon points="103.013,50.626 103.013,64.626 117.013,64.626 117.013,50.626" style="fill:none;stroke-width:0.050000mm;stroke:black"/>
<polygon points="122.063,50.626 122.063,64.626 136.063,64.626 136.063,50.626" style="fill:none;stroke-width:0.050000mm;stroke:black"/>
<polygon points="22.050,31.576 22.050,45.576 36.051,45.576 36.051,31.576" style="fill:none;stroke-width:0.050000mm;stroke:black"/>
<polygon points="41.100,31.576 41.100,45.576 55.100,45.576 55.100,31.576" style="fill:none;stroke-width:0.050000mm;stroke:black"/>
<polygon points="60.150,31.576 60.150,45.576 74.150,45.576 74.150,31.576" style="fill:none;stroke-width:0.050000mm;stroke:black"/>
<polygon points="79.200,31.576 79.200,45.576 93.200,45.576 93.200,31.576" style="fill:none;stroke-width:0.050000mm;stroke:black"/>
<polygon points="98.250,31.576 98.250,45.576 112.250,45.576 112.250,31.576" style="fill:none;stroke-width:0.050000mm;stroke:black"/>
<polygon points="117.300,31.576 117.300,45.576 131.300,45.576 131.300,31.576" style="fill:none;stroke-width:0.050000mm;stroke:black"/>
<polygon points="136.351,31.576 136.351,45.576 150.351,45.576 150.351,31.576" style="fill:none;stroke-width:0.050000mm;stroke:black"/>
<polygon points="160.163,31.576 160.163,45.576 174.163,45.576 174.163,31.576" style="fill:none;stroke-width:0.050000mm;stroke:black"/>
<polygon points="155.400,12.525 155.400,17.225 153.875,17.225 153.875,13.995 147.125,13.995 147.125,17.225 146.300,17.225 146.300,20.026 147.125,20.026 147.125,26.295 148.850,26.295 148.850,27.495 152.150,27.495 152.150,26.295 153.875,26.295 153.875,21.826 155.400,21.826 155.400,26.526 169.400,26.526 169.400,21.826 170.925,21.826 170.925,26.295 172.650,26.295 172.650,27.495 175.951,27.495 175.951,26.295 177.675,26.295 177.675,20.026 178.500,20.026 178.500,17.225 177.675,17.225 177.675,13.995 170.925,13.995 170.925,17.225 169.400,17.225 169.400,12.525" style="fill:none;stroke-width:0.050000mm;stroke:black"/>
<polygon points="12.525,12.525 12.525,26.526 26.526,26.526 26.526,12.525" style="fill:none;stroke-width:0.050000mm;stroke:black"/>
<polygon points="31.576,12.525 31.576,26.526 45.576,26.526 45.576,12.525" style="fill:none;stroke-width:0.050000mm;stroke:black"/>
<polygon points="50.626,12.525 50.626,26.526 64.626,26.526 64.626,12.525" style="fill:none;stroke-width:0.050000mm;stroke:black"/>
<polygon points="69.676,12.525 69.676,26.526 83.676,26.526 83.676,12.525" style="fill:none;stroke-width:0.050000mm;stroke:black"/>
<polygon points="88.726,12.525 88.726,26.526 102.726,26.526 102.726,12.525" style="fill:none;stroke-width:0.050000mm;stroke:black"/>
<polygon points="107.775,12.525 107.775,26.526 121.775,26.526 121.775,12.525" style="fill:none;stroke-width:0.050000mm;stroke:black"/>
<polygon points="126.825,12.525 126.825,26.526 140.826,26.526 140.826,12.525" style="fill:none;stroke-width:0.050000mm;stroke:black"/>
</svg>
