<?xml version="1.0"?>
<!-- Generated by SVGo -->
<svg width="206.452mm" height="217.802mm"
     viewBox="0.000 0.000 206.452 217.802"
     xmlns="http://www.w3.org/2000/svg" 
     xmlns:xlink="http://www.w3.org/1999/xlink">
<polygon points="200.452,5.001 200.530,5.004 200.608,5.013 200.685,5.028 200.761,5.049 200.834,5.077 200.905,5.109 200.974,5.148 201.039,5.191 201.101,5.240 201.159,5.293 201.212,5.351 201.261,5.413 201.304,5.478 201.343,5.547 201.375,5.618 201.403,5.691 201.424,5.767 201.439,5.844 201.448,5.922 201.452,6.001 201.452,211.802 201.448,211.880 201.439,211.958 201.424,212.035 201.403,212.111 201.375,212.184 201.343,212.255 201.304,212.324 201.261,212.389 201.212,212.451 201.159,212.509 201.101,212.562 201.039,212.611 200.974,212.654 200.905,212.693 200.834,212.725 200.761,212.753 200.685,212.774 200.608,212.789 200.530,212.798 200.451,212.802 6.001,212.802 5.922,212.798 5.844,212.789 5.767,212.774 5.691,212.753 5.618,212.725 5.547,212.693 5.478,212.654 5.413,212.611 5.351,212.562 5.293,212.509 5.240,212.451 5.191,212.389 5.148,212.324 5.109,212.255 5.077,212.184 5.049,212.111 5.028,212.035 5.013,211.958 5.004,211.880 5.000,211.801 5.001,6.001 5.004,5.922 5.013,5.844 5.028,5.767 5.049,5.691 5.077,5.618 5.109,5.547 5.148,5.478 5.191,5.413 5.240,5.351 5.293,5.293 5.351,5.240 5.413,5.191 5.478,5.148 5.547,5.109 5.618,5.077 5.691,5.049 5.767,5.028 5.844,5.013 5.922,5.004 6.001,5.000" style="fill:none;stroke-width:0.050000mm;stroke:black"/>
<polygon points="7.006,208.780 6.560,209.007 6.206,209.361 5.979,209.807 5.900,210.302 5.979,210.796 6.206,211.242 6.560,211.596 7.006,211.823 7.500,211.901 7.995,211.823 8.441,211.596 8.795,211.242 9.022,210.796 9.101,210.302 9.022,209.807 8.795,209.361 8.441,209.007 7.995,208.780 7.501,208.702" style="fill:none;stroke-width:0.050000mm;stroke:black"/>
<polygon points="70.823,208.780 70.377,209.007 70.023,209.361 69.796,209.807 69.718,210.302 69.796,210.796 70.023,211.242 70.377,211.596 70.823,211.823 71.318,211.901 71.812,211.823 72.258,211.596 72.612,211.242 72.839,210.796 72.918,210.302 72.839,209.807 72.612,209.361 72.258,209.007 71.812,208.780 71.318,208.702" style="fill:none;stroke-width:0.050000mm;stroke:black"/>
<polygon points="134.640,208.780 134.194,209.007 133.840,209.361 133.613,209.807 133.535,210.302 133.613,210.796 133.840,211.242 134.194,211.596 134.640,211.823 135.135,211.901 135.629,211.823 136.075,211.596 136.429,211.242 136.656,210.796 136.735,210.302 136.656,209.807 136.429,209.361 136.075,209.007 135.629,208.780 135.135,208.702" style="fill:none;stroke-width:0.050000mm;stroke:black"/>
<polygon points="198.457,208.780 198.011,209.007 197.657,209.361 197.430,209.807 197.352,210.302 197.430,210.796 197.657,211.242 198.011,211.596 198.457,211.823 198.952,211.901 199.446,211.823 199.892,211.596 200.246,211.242 200.473,210.796 200.552,210.302 200.473,209.807 200.246,209.361 199.892,209.007 199.446,208.780 198.952,208.702" style="fill:none;stroke-width:0.050000mm;stroke:black"/>
<polygon points="48.007,113.726 48.007,118.426 46.482,118.426 46.482,115.196 39.732,115.196 39.732,118.426 38.907,118.426 38.907,121.226 39.732,121.226 39.732,127.495 41.457,127.495 41.457,128.696 44.757,128.696 44.757,127.495 46.482,127.495 46.482,123.025 48.007,123.025 48.007,127.726 62.007,127.726 62.007,123.025 63.532,123.025 63.532,127.495 65.257,127.495 65.257,128.696 68.557,128.696 68.557,127.495 70.282,127.495 70.282,121.226 71.107,121.226 71.107,118.426 70.282,118.426 70.282,115.196 63.532,115.196 63.532,118.426 62.007,118.426 62.007,113.726" style="fill:none;stroke-width:0.050000mm;stroke:black"/>
<polygon points="86.107,113.726 86.107,127.726 100.107,127.726 100.107,113.726" style="fill:none;stroke-width:0.050000mm;stroke:black"/>
<polygon points="109.919,113.726 109.919,127.726 123.919,127.726 123.919,113.726" style="fill:none;stroke-width:0.050000mm;stroke:black"/>
<polygon points="133.732,113.726 133.732,127.726 147.732,127.726 147.732,113.726" style="fill:none;stroke-width:0.050000mm;stroke:black"/>
<polygon points="157.544,113.726 157.544,127.726 171.544,127.726 171.544,113.726" style="fill:none;stroke-width:0.050000mm;stroke:black"/>
<polygon points="143.257,94.676 143.257,99.376 141.732,99.376 141.732,96.146 134.982,96.146 134.982,99.376 134.157,99.376 134.157,102.176 134.982,102.176 134.982,108.446 136.707,108.446 136.707,109.646 140.007,109.646 140.007,108.446 141.732,108.446 141.732,103.976 143.257,103.976 143.257,108.676 157.257,108.676 157.257,103.976 158.782,103.976 158.782,108.446 160.507,108.446 160.507,109.646 163.807,109.646 163.807,108.446 165.532,108.446 165.532,102.176 166.357,102.176 166.357,99.376 165.532,99.376 165.532,96.146 158.782,96.146 158.782,99.376 157.257,99.376 157.257,94.676" style="fill:none;stroke-width:0.050000mm;stroke:black"/>
<polygon points="31.338,94.676 31.338,108.676 45.338,108.676 45.338,94.676" style="fill:none;stroke-width:0.050000mm;stroke:black"/>
<polygon points="50.388,94.676 50.388,108.676 64.388,108.676 64.388,94.676" style="fill:none;stroke-width:0.050000mm;stroke:black"/>
<polygon points="69.438,94.676 69.438,108.676 83.438,108.676 83.438,94.676" style="fill:none;stroke-width:0.050000mm;stroke:black"/>
<polygon points="88.488,94.676 88.488,108.676 102.488,108.676 102.488,94.676" style="fill:none;stroke-width:0.050000mm;stroke:black"/>
<polygon points="107.538,94.676 107.538,108.676 121.538,108.676 121.538,94.676" style="fill:none;stroke-width:0.050000mm;stroke:black"/>
<polygon points="148.019,75.626 148.019,80.326 146.494,80.326 146.494,77.096 139.744,77.096 139.744,80.326 138.919,80.326 138.919,83.126 139.744,83.126 139.744,89.396 141.469,89.396 141.469,90.596 144.769,90.596 144.769,89.396 146.494,89.396 146.494,84.926 148.019,84.926 148.019,89.626 162.019,89.626 162.019,84.926 163.544,84.926 163.544,89.396 165.269,89.396 165.269,90.596 168.569,90.596 168.569,89.396 170.294,89.396 170.294,83.126 171.119,83.126 171.119,80.326 170.294,80.326 170.294,77.096 163.544,77.096 163.544,80.326 162.019,80.326 162.019,75.626" style="fill:none;stroke-width:0.050000mm;stroke:black"/>
<polygon points="21.813,75.626 21.813,89.626 35.813,89.626 35.813,75.626" style="fill:none;stroke-width:0.050000mm;stroke:black"/>
<polygon points="40.863,75.626 40.863,89.626 54.863,89.626 54.863,75.626" style="fill:none;stroke-width:0.050000mm;stroke:black"/>
<polygon points="59.913,75.626 59.913,89.626 73.913,89.626 73.913,75.626" style="fill:none;stroke-width:0.050000mm;stroke:black"/>
<polygon points="78.963,75.626 78.963,89.626 92.963,89.626 92.963,75.626" style="fill:none;stroke-width:0.050000mm;stroke:black"/>
<polygon points="98.013,75.626 98.013,89.626 112.013,89.626 112.013,75.626" style="fill:none;stroke-width:0.050000mm;stroke:black"/>
<polygon points="117.063,75.626 117.063,89.626 131.063,89.626 131.063,75.626" style="fill:none;stroke-width:0.050000mm;stroke:black"/>
<polygon points="17.051,56.576 17.051,70.576 31.051,70.576 31.051,56.576" style="fill:none;stroke-width:0.050000mm;stroke:black"/>
<polygon points="36.101,56.576 36.101,70.576 50.101,70.576 50.101,56.576" style="fill:none;stroke-width:0.050000mm;stroke:black"/>
<polygon points="55.151,56.576 55.151,70.576 69.151,70.576 69.151,56.576" style="fill:none;stroke-width:0.050000mm;stroke:black"/>
<polygon points="74.201,56.576 74.201,70.576 88.201,70.576 88.201,56.576" style="fill:none;stroke-width:0.050000mm;stroke:black"/>
<polygon points="93.251,56.576 93.251,70.576 107.251,70.576 107.251,56.576" style="fill:none;stroke-width:0.050000mm;stroke:black"/>
<polygon points="112.301,56.576 112.301,70.576 126.301,70.576 126.301,56.576" style="fill:none;stroke-width:0.050000mm;stroke:black"/>
<polygon points="131.351,56.576 131.351,70.576 145.351,70.576 145.351,56.576" style="fill:none;stroke-width:0.050000mm;stroke:black"/>
<polygon points="155.163,56.576 155.163,70.576 169.163,70.576 169.163,56.576" style="fill:none;stroke-width:0.050000mm;stroke:black"/>
<polygon points="150.400,37.526 150.400,42.226 148.875,42.226 148.875,38.996 142.125,38.996 142.125,42.226 141.300,42.226 141.300,45.026 142.125,45.026 142.125,51.296 143.850,51.296 143.850,52.496 147.150,52.496 147.150,51.296 148.875,51.296 148.875,46.825 150.400,46.825 150.400,51.526 164.400,51.526 164.400,46.825 165.925,46.825 165.925,51.296 167.650,51.296 167.650,52.496 170.951,52.496 170.951,51.296 172.675,51.296 172.675,45.026 173.500,45.026 173.500,42.226 172.675,42.226 172.675,38.996 165.925,38.996 165.925,42.226 164.400,42.226 164.400,37.526" style="fill:none;stroke-width:0.050000mm;stroke:black"/>
<polygon points="7.526,37.526 7.526,51.526 21.526,51.526 21.526,37.526" style="fill:none;stroke-width:0.050000mm;stroke:black"/>
<polygon points="26.576,37.526 26.576,51.526 40.576,51.526 40.576,37.526" style="fill:none;stroke-width:0.050000mm;stroke:black"/>
<polygon points="45.626,37.526 45.626,51.526 59.626,51.526 59.626,37.526" style="fill:none;stroke-width:0.050000mm;stroke:black"/>
<polygon points="64.676,37.526 64.676,51.526 78.676,51.526 78.676,37.526" style="fill:none;stroke-width:0.050000mm;stroke:black"/>
<polygon points="83.726,37.526 83.726,51.526 97.726,51.526 97.726,37.526" style="fill:none;stroke-width:0.050000mm;stroke:black"/>
<polygon points="102.775,37.526 102.775,51.526 116.775,51.526 116.775,37.526" style="fill:none;stroke-width:0.050000mm;stroke:black"/>
<polygon points="121.825,37.526 121.825,51.526 135.826,51.526 135.826,37.526" style="fill:none;stroke-width:0.050000mm;stroke:black"/>
<polygon points="7.006,5.979 6.560,6.206 6.206,6.560 5.979,7.006 5.900,7.501 5.979,7.995 6.206,8.441 6.560,8.795 7.006,9.022 7.500,9.101 7.995,9.022 8.441,8.795 8.795,8.441 9.022,7.995 9.101,7.501 9.022,7.006 8.795,6.560 8.441,6.206 7.995,5.979 7.501,5.901" style="fill:none;stroke-width:0.050000mm;stroke:black"/>
<polygon points="70.823,5.979 70.377,6.206 70.023,6.560 69.796,7.006 69.718,7.501 69.796,7.995 70.023,8.441 70.377,8.795 70.823,9.022 71.318,9.101 71.812,9.022 72.258,8.795 72.612,8.441 72.839,7.995 72.918,7.501 72.839,7.006 72.612,6.560 72.258,6.206 71.812,5.979 71.318,5.901" style="fill:none;stroke-width:0.050000mm;stroke:black"/>
<polygon points="134.640,5.979 134.194,6.206 133.840,6.560 133.613,7.006 133.535,7.501 133.613,7.995 133.840,8.441 134.194,8.795 134.640,9.022 135.135,9.101 135.629,9.022 136.075,8.795 136.429,8.441 136.656,7.995 136.735,7.501 136.656,7.006 136.429,6.560 136.075,6.206 135.629,5.979 135.135,5.901" style="fill:none;stroke-width:0.050000mm;stroke:black"/>
<polygon points="198.457,5.979 198.011,6.206 197.657,6.560 197.430,7.006 197.352,7.501 197.430,7.995 197.657,8.441 198.011,8.795 198.457,9.022 198.952,9.101 199.446,9.022 199.892,8.795 200.246,8.441 200.473,7.995 200.552,7.501 200.473,7.006 200.246,6.560 199.892,6.206 199.446,5.979 198.952,5.901" style="fill:none;stroke-width:0.050000mm;stroke:black"/>
</svg>
